# xmcd
#
# Track frame offsets: 
#        150
#        24005
#        48539
#        69089
#        91347
#        112708
#        132891
#        152624
#        170171
#        190275
#        208541
#        234219
#        257204
#        276586
#        299887
#        319899
#
# Disc length: 4561 seconds
#
# Revision: 1
# Processed by: cddbd v1.5.2PL0 Copyright (c) Steve Scherf et al.
# Submitted via: ExactAudioCopyFreeDBPlugin 1.0
#
DISCID=e411cf10
DTITLE=群星 - TEST-CD试音极品19CDA
DYEAR=2013
DGENRE=stereo
TTITLE0=北京北京
TTITLE1=情歌好听却难唱
TTITLE2=会哭的人不一定流泪
TTITLE3=当爱情经过的时候
TTITLE4=分手了别来打扰我
TTITLE5=其实我真的爱你
TTITLE6=你会爱我到什么时候
TTITLE7=红尘永相伴
TTITLE8=把爱深藏
TTITLE9=告诉我亲爱的你
TTITLE10=谁在窗外流泪
TTITLE11=我们的歌谣
TTITLE12=爱随你远走
TTITLE13=昨夜
TTITLE14=关于我们的故事
TTITLE15=梦中情人
EXTD=
EXTT0=
EXTT1=
EXTT2=
EXTT3=
EXTT4=
EXTT5=
EXTT6=
EXTT7=
EXTT8=
EXTT9=
EXTT10=
EXTT11=
EXTT12=
EXTT13=
EXTT14=
EXTT15=
PLAYORDER=
